<svg width="192" height="192" viewBox="0 0 192 192" fill="none" xmlns="http://www.w3.org/2000/svg">
<g clip-path="url(#clip0)">
<path fill-rule="evenodd" clip-rule="evenodd" d="M84 0H108L120.157 28.3652C122.361 29.1749 124.514 30.0901 126.61 31.1047L155.355 19.6066L172.326 36.5772L160.6 65.8908C161.437 67.7268 162.198 69.6045 162.879 71.5197L192 84V108L162.445 120.666C161.763 122.482 161.008 124.262 160.185 126.004L172.326 156.355L155.355 173.326L124.37 160.932C123.153 161.47 121.918 161.975 120.666 162.445L108 192H84L71.5198 162.879C70.0143 162.344 68.532 161.759 67.0749 161.127L36.577 173.326L19.6064 156.355L31.3245 127.06C30.222 124.822 29.233 122.519 28.3652 120.157L1.90735e-06 108L0 84L27.9431 72.0244C28.8006 69.5566 29.7894 67.1503 30.9013 64.8138L19.6066 36.5771L36.5772 19.6066L64.8139 30.9012C67.1503 29.7894 69.5566 28.8006 72.0244 27.9431L84 0ZM95.5 137C118.42 137 137 118.42 137 95.5C137 72.5802 118.42 54 95.5 54C72.5802 54 54 72.5802 54 95.5C54 118.42 72.5802 137 95.5 137Z" fill="white"/>
</g>
<defs>
<clipPath id="clip0">
<rect width="192" height="192" fill="white"/>
</clipPath>
</defs>
</svg>
